<?xml version="1.0" encoding="utf-8"?>
<!-- Generator: Adobe Illustrator 16.0.0, SVG Export Plug-In . SVG Version: 6.00 Build 0)  -->
<!DOCTYPE svg PUBLIC "-//W3C//DTD SVG 1.1//EN" "http://www.w3.org/Graphics/SVG/1.1/DTD/svg11.dtd">
<svg version="1.1" id="Layer_1" xmlns="http://www.w3.org/2000/svg" xmlns:xlink="http://www.w3.org/1999/xlink" x="0px" y="0px"
	 width="261.17px" height="247px" viewBox="0 0 261.17 247" enable-background="new 0 0 261.17 247" xml:space="preserve">
<g>
	<path fill-rule="evenodd" clip-rule="evenodd" fill="#FFFFFF" d="M150.432,169.295c-28.155,0-56.31,0.005-84.464-0.002
		c-9.556-0.003-11.51-1.917-11.511-11.278c-0.006-38.65-0.006-77.301,0-115.952c0.002-8.921,2.067-11.31,10.696-10.926
		c4.471,0.199,6.883-1.464,8.122-5.437c1.456-4.673,4.492-6.213,9.396-5.97c8.144,0.404,16.33,0.331,24.481,0.016
		c3.989-0.153,6.479,1.228,7.542,4.877c1.575,5.408,5.018,6.571,10.443,6.532c36.983-0.264,73.968-0.14,110.953-0.137
		c8.51,0.001,10.761,2.163,10.764,10.487c0.015,39.15,0.017,78.3-0.002,117.452c-0.004,8.053-2.303,10.323-10.456,10.329
		C207.742,169.308,179.086,169.295,150.432,169.295z M150.055,158.805c25.65,0,51.301,0.008,76.951-0.004
		c8.673-0.005,11.099-2.377,11.102-10.857c0.01-31.314,0.01-62.627,0-93.94c-0.002-8.512-2.438-10.924-11.031-10.925
		c-51.301-0.007-102.601-0.008-153.901,0.001c-8.385,0.002-10.839,2.39-10.844,10.603c-0.017,31.48-0.017,62.959,0,94.439
		c0.004,8.301,2.397,10.671,10.773,10.677C98.755,158.816,124.406,158.805,150.055,158.805z"/>
	<rect x="164.504" y="85.362" fill-rule="evenodd" clip-rule="evenodd" fill="#FFFFFF" width="23.854" height="11.91"/>
	<rect x="164.504" y="101.393" fill-rule="evenodd" clip-rule="evenodd" fill="#FFFFFF" width="59.904" height="11.91"/>
	<rect x="164.504" y="117.423" fill-rule="evenodd" clip-rule="evenodd" fill="#FFFFFF" width="43.173" height="11.91"/>
	<rect x="164.504" y="69.332" fill-rule="evenodd" clip-rule="evenodd" fill="#FFFFFF" width="38.333" height="11.91"/>
	<g>
		<path fill-rule="evenodd" clip-rule="evenodd" fill="#FFFFFF" d="M64.903,226.04c-17.381-0.864-33.615-9.052-43.548-27.521
			c-6.625-12.319-6.449-25.243-2.045-38.271c3.678-10.878,9.438-20.685,15.858-30.101c7.324-10.739,14.896-21.308,22.305-31.99
			c2.15-3.1,4.093-6.344,6.168-9.497c2.154-3.27,6.473-3.344,8.669-0.157c8.936,12.968,17.894,25.919,26.78,38.92
			c6.307,9.227,12.205,18.692,16.324,29.15c2.489,6.315,4.311,12.819,4.368,19.629c0.156,18.777-8.433,32.711-24.205,42.391
			C87.362,223.638,77.78,226.048,64.903,226.04z M26.361,177.63c0.273,2.242,0.43,4.506,0.854,6.721
			c0.426,2.212,2.421,3.753,4.608,3.869c3.449,0.182,6.031-2.474,5.484-5.981c-0.893-5.729,0.154-11.157,2.07-16.497
			c2.287-6.371,5.351-12.388,9.082-18.001c5.998-9.02,12.268-17.86,18.419-26.779c1.874-2.717,1.48-5.844-0.947-7.603
			c-2.53-1.833-5.625-1.205-7.598,1.561c-3.193,4.478-6.39,8.953-9.558,13.448c-6.62,9.396-12.969,18.956-17.527,29.57
			C28.553,164.218,26.606,170.691,26.361,177.63z"/>
	</g>
	<path fill-rule="evenodd" clip-rule="evenodd" fill="#FFFFFF" d="M148.152,139.29c-4.121-10.458-10.018-19.925-16.325-29.151
		c-8.887-13-17.846-25.952-26.781-38.919c-2.196-3.188-6.515-3.114-8.668,0.156c-2.076,3.153-4.019,6.397-6.169,9.497
		c-0.219,0.315-0.439,0.63-0.658,0.945c8.199,11.892,16.409,23.775,24.56,35.7c6.307,9.226,12.204,18.692,16.325,29.15
		c2.488,6.314,4.31,12.818,4.366,19.629c0.15,17.961-7.707,31.488-22.194,41.1c5.914-1.203,11.031-3.219,15.706-6.088
		c15.771-9.679,24.361-23.613,24.205-42.391C152.461,152.108,150.64,145.605,148.152,139.29z"/>
</g>
</svg>
