<?xml version="1.0" encoding="utf-8"?>
<!-- Generator: Adobe Illustrator 16.0.0, SVG Export Plug-In . SVG Version: 6.00 Build 0)  -->
<!DOCTYPE svg PUBLIC "-//W3C//DTD SVG 1.1//EN" "https://www.w3.org/Graphics/SVG/1.1/DTD/svg11.dtd">
<svg version="1.1" id="Layer_1" xmlns="https://www.w3.org/2000/svg" xmlns:xlink="https://www.w3.org/1999/xlink" x="0px" y="0px"
	 width="261.17px" height="247px" viewBox="0 0 261.17 247" enable-background="new 0 0 261.17 247" xml:space="preserve">
<g>
	<path fill-rule="evenodd" clip-rule="evenodd" fill="#FFFFFF" d="M84.344,165.711c0-6.05,0-11.688,0-17.547
		c5.904,0,11.624,0,17.547,0c0,5.88,0,11.611,0,17.547C96.033,165.711,90.312,165.711,84.344,165.711z"/>
	<path fill-rule="evenodd" clip-rule="evenodd" fill="#FFFFFF" d="M153.766,173.295c-28.154,0-56.31,0.005-84.465-0.002
		c-9.556-0.003-11.51-1.917-11.51-11.278c-0.006-38.65-0.007-77.301,0-115.952c0.002-8.92,2.067-11.31,10.695-10.926
		c4.472,0.199,6.884-1.465,8.122-5.437c1.456-4.673,4.492-6.213,9.396-5.97c8.144,0.404,16.33,0.331,24.481,0.016
		c3.988-0.153,6.479,1.228,7.542,4.877c1.575,5.408,5.019,6.571,10.442,6.532c36.983-0.264,73.969-0.14,110.953-0.137
		c8.51,0.001,10.761,2.163,10.764,10.487c0.015,39.15,0.017,78.3-0.002,117.451c-0.004,8.053-2.303,10.323-10.456,10.329
		C211.075,173.308,182.42,173.295,153.766,173.295z M153.389,162.805c25.65,0,51.301,0.008,76.951-0.004
		c8.673-0.005,11.099-2.377,11.102-10.857c0.01-31.314,0.01-62.627,0-93.94c-0.002-8.513-2.438-10.924-11.031-10.925
		c-51.301-0.007-102.601-0.008-153.9,0.001c-8.386,0.002-10.84,2.39-10.844,10.603c-0.018,31.48-0.018,62.96-0.001,94.439
		c0.005,8.301,2.397,10.671,10.773,10.677C102.088,162.816,127.739,162.805,153.389,162.805z"/>
	<rect x="167.838" y="89.362" fill-rule="evenodd" clip-rule="evenodd" fill="#FFFFFF" width="23.854" height="11.909"/>
	<rect x="167.838" y="105.393" fill-rule="evenodd" clip-rule="evenodd" fill="#FFFFFF" width="59.904" height="11.91"/>
	<rect x="167.838" y="121.424" fill-rule="evenodd" clip-rule="evenodd" fill="#FFFFFF" width="43.173" height="11.91"/>
	<rect x="167.838" y="73.332" fill-rule="evenodd" clip-rule="evenodd" fill="#FFFFFF" width="38.333" height="11.91"/>
	<g>
		<path fill-rule="evenodd" clip-rule="evenodd" fill="#FFFFFF" d="M24.797,178h14.48l5.089,21h10.493l-7.563-31H16.634l-6.986,31
			h10.45L24.797,178z M56.699,207H7.947L2,233h61.139L56.699,207z"/>
	</g>
	<path fill-rule="evenodd" clip-rule="evenodd" fill="#FFFFFF" d="M159.438,114.342c-1.13-9.457-9.084-17.396-20.125-18.466
		c-2.863-0.277-3.913-1.484-5.021-3.737c-7.694-15.639-25.078-22.641-41.196-16.716c-12.814,4.71-21.225,16.568-21.368,30.481
		c-0.03,2.951-0.468,4.434-3.964,4.538c-6.776,0.2-11.498,4.027-13.174,10.631c-0.669,2.638-1.632,3.396-4.28,3.585
		c-6.85,0.493-12.279,3.905-15.381,9.982c-1.785,3.499-2.355,7.618-3.543,11.697c-0.166,0.021-0.751,0.033-1.308,0.163
		c-5.792,1.361-8.58,4.6-8.201,9.496c0.367,4.746,3.843,7.491,9.892,7.555c12.37,0.127,24.744,0.05,37.109,0.321
		c2.078,0.045,4.496,0.952,6.124,2.253c7.746,6.183,17.605,6.809,24.962,1.179c5.733-4.388,8.286-10.304,7.926-17.854
		c4.527-0.45,8.917-1.449,9.736-5.846c0.892-4.782,3.589-4.621,7.103-4.633c6.383-0.022,12.919,0.447,19.111-0.744
		C153.03,136.461,160.979,127.259,159.438,114.342z M93.207,115.146c-2.582-0.939-4.986-0.63-6.976,1.299
		c-2.138,2.071-2.693,4.743-2.175,7.579c0.358,1.963,1.733,2.916,3.751,2.758c1.393-0.109,2.777-0.315,4.222-0.485
		c1.539,2.563,1.114,3.652-1.782,4.272c-7.53,1.61-12.144-2.843-10.79-10.417c1.381-7.719,10.45-12.026,16.688-7.715
		c-0.479,0.99-0.975,2.012-1.533,3.168C94.057,115.424,93.627,115.299,93.207,115.146z M104.174,130.74
		c-5.626,0.308-8.825-2.822-8.697-8.508c0.119-5.292,3.639-9.938,8.453-11.161c5.791-1.472,10.172,1.955,10.146,7.937
		C114.05,125.261,109.678,130.439,104.174,130.74z M123.394,126.967c-0.78,0.861-1.746,1.674-2.651,2.418
		c-0.835,0.688-1.7,1.615-2.482,2.615h4.572c0.251,2-0.408,2.545-2.054,2.484c-2.184-0.078-4.37-0.076-7.456-0.076
		c1.153-1.858,1.829-3.381,2.87-4.548c1.081-1.209,2.628-2.011,3.751-3.191c0.644-0.678,0.851-1.776,1.253-2.682
		c-0.937,0.053-1.878,0.073-2.81,0.17c-0.29,0.03-0.56,0.258-0.944,0.449c-1.521-1.485-1.12-2.366,0.497-3.075
		c2.231-0.98,4.816-0.761,5.854,0.721C124.934,123.879,124.685,125.542,123.394,126.967z M103.477,115.5
		c-2.428,1.634-3.216,4.117-3.859,7.198c0.826,1.302,1.364,3.1,2.549,3.788c1.715,0.997,3.669,0.289,5.053-1.286
		c1.861-2.117,2.648-4.59,2.078-7.377C108.672,114.772,106.084,113.745,103.477,115.5z"/>
</g>
</svg>
