<?xml version="1.0" encoding="utf-8"?>
<!-- Generator: Adobe Illustrator 16.0.0, SVG Export Plug-In . SVG Version: 6.00 Build 0)  -->
<!DOCTYPE svg PUBLIC "-//W3C//DTD SVG 1.1//EN" "http://www.w3.org/Graphics/SVG/1.1/DTD/svg11.dtd">
<svg version="1.1" id="Layer_1" xmlns="http://www.w3.org/2000/svg" xmlns:xlink="http://www.w3.org/1999/xlink" x="0px" y="0px"
	 width="261.17px" height="247px" viewBox="0 0 261.17 247" enable-background="new 0 0 261.17 247" xml:space="preserve">
<g>
	<path fill-rule="evenodd" clip-rule="evenodd" fill="#E6E7E8" d="M147.262,170.741c-28.154,0-56.31,0.005-84.465-0.002
		c-9.556-0.003-11.51-1.917-11.51-11.278c-0.006-38.65-0.007-77.301,0-115.951c0.002-8.922,2.067-11.311,10.695-10.927
		c4.472,0.199,6.884-1.464,8.122-5.437c1.456-4.673,4.492-6.213,9.396-5.97c8.144,0.404,16.33,0.331,24.481,0.016
		c3.988-0.153,6.479,1.228,7.542,4.878c1.575,5.407,5.019,6.57,10.442,6.531c36.983-0.264,73.969-0.14,110.953-0.137
		c8.51,0.001,10.761,2.163,10.764,10.486c0.015,39.15,0.017,78.301-0.002,117.452c-0.004,8.053-2.303,10.323-10.456,10.329
		C204.571,170.754,175.916,170.741,147.262,170.741z M146.885,160.251c25.65,0,51.301,0.008,76.951-0.004
		c8.673-0.005,11.099-2.377,11.102-10.857c0.01-31.313,0.01-62.627,0-93.94c-0.002-8.512-2.438-10.924-11.031-10.925
		c-51.301-0.007-102.601-0.008-153.9,0.001c-8.386,0.002-10.84,2.39-10.844,10.604c-0.018,31.479-0.018,62.959-0.001,94.438
		c0.005,8.301,2.397,10.671,10.773,10.677C95.584,160.263,121.235,160.251,146.885,160.251z"/>
	<rect x="161.334" y="86.809" fill-rule="evenodd" clip-rule="evenodd" fill="#4D4D4D" width="23.854" height="11.91"/>
	<rect x="161.334" y="102.84" fill-rule="evenodd" clip-rule="evenodd" fill="#FF6B00" width="59.904" height="11.909"/>
	<rect x="161.334" y="118.869" fill-rule="evenodd" clip-rule="evenodd" fill="#4D4D4D" width="43.173" height="11.91"/>
	<rect x="161.334" y="70.777" fill-rule="evenodd" clip-rule="evenodd" fill="#4D4D4D" width="38.333" height="11.91"/>
	<g>
		<path fill-rule="evenodd" clip-rule="evenodd" d="M89.24,186.583c-2.794-0.386-5.595-0.735-8.383-1.172
			c-1.61-0.251-1.807-0.631-1.531-2.316c0.856-5.24-0.466-9.712-4.785-13.02c-4.43-3.391-10.211-3.749-15.005-0.404
			c-0.949,0.663-1.772,1.515-2.615,2.318c-0.715,0.681-1.411,0.913-2.126,0.064c-2.574-3.06-5.145-6.12-7.69-9.202
			c-0.826-1.001-0.661-1.675,0.563-2.416c6.226-3.764,8.163-12.07,3.98-18.12c-2.508-3.628-6.056-5.223-10.229-5.819
			c-0.146-0.02-0.292-0.03-0.438-0.028c-2.653,0.028-2.765,0.021-2.609-2.729c0.185-3.262,0.523-6.52,0.915-9.764
			c0.227-1.886,0.895-2.235,2.682-1.745c4.254,1.165,10.005-1.203,12.928-5.086c3.947-5.246,3.17-12.637-1.617-16.988
			c-1.419-1.29-1.527-1.565-0.166-2.82c2.791-2.571,5.71-5.009,8.649-7.414c0.943-0.771,1.953-0.522,2.598,0.591
			c2.034,3.513,5.247,5.411,9.085,6.054c4.714,0.79,8.657-1.034,11.742-4.566c2.207-2.529,3.188-5.554,2.898-8.961
			c-0.129-1.534,0.261-2.018,1.835-1.899c3.839,0.286,7.666,0.721,11.497,1.109c1.265,0.129,1.563,0.793,1.306,2.037
			c-1.103,5.307,0.378,9.855,4.662,13.162c4.197,3.238,8.869,3.914,13.817,1.157c1.38-0.769,2.644-1.813,3.792-2.908
			c0.977-0.931,1.637-0.999,2.501,0.067c2.454,3.03,4.96,6.019,7.439,9.028c0.768,0.933,0.564,1.588-0.465,2.248
			c-4.721,3.026-6.977,7.379-6.167,12.943c0.695,4.779,3.475,8.248,8.003,10.033c1.591,0.626,3.399,0.771,5.128,0.949
			c1.672,0.173,2.157,0.483,2.061,2.111c-0.212,3.558-0.423,7.116-0.773,10.66c-0.196,1.981-0.745,2.284-2.639,1.721
			c-5.548-1.653-12.524,2.508-14.516,7.701c-2.198,5.73-0.725,10.406,3.401,14.532c0.95,0.949,0.934,1.857,0.021,2.645
			c-2.917,2.518-5.885,4.979-8.866,7.42c-1.116,0.912-1.973,0.224-2.521-0.738c-1.214-2.124-3.063-3.49-5.111-4.694
			c-3.827-2.254-10.35-1.594-13.662,1.34c-2.814,2.491-4.755,5.408-5.002,9.263c-0.025,0.39-0.095,0.783-0.064,1.168
			c0.171,2.246,0.179,2.242-2.134,2.211c-0.783-0.011-1.564-0.001-2.348-0.001C89.269,186.396,89.255,186.49,89.24,186.583z
			 M119.904,133.95c0.16-16.261-12.901-29.249-28.946-29.177c-16.077,0.072-28.675,12.35-28.936,28.812
			c-0.251,15.933,12.519,28.671,27.92,29.209C106.818,163.384,120.048,149.65,119.904,133.95z"/>
		<path fill-rule="evenodd" clip-rule="evenodd" fill="#FF6B00" d="M66.816,237.692c0.271,1.079,0.629,2.146,0.771,3.239
			c0.063,0.493-0.179,1.399-0.497,1.513c-3.022,1.082-6.079,2.073-9.155,2.996c-0.921,0.275-1.541-0.243-1.831-1.221
			c-0.987-3.314-3.232-5.342-6.627-5.844c-3.113-0.46-5.628,0.813-7.556,3.269c-0.12,0.152-0.236,0.313-0.332,0.481
			c-1.274,2.269-1.786,2.496-4.107,1.375c-2.235-1.08-4.422-2.271-6.585-3.492c-1.697-0.96-1.753-1.381-0.735-3.07
			c1.752-2.909,1.482-6.224-0.724-8.854c-2.293-2.736-5.883-3.764-9.108-2.398c-1.313,0.556-1.997,0.405-2.436-0.945
			c-0.964-2.959-1.977-5.902-2.929-8.866c-0.313-0.974,0.325-1.339,1.156-1.44c4.605-0.564,7.811-4.737,6.896-9.626
			c-0.404-2.162-1.811-3.736-3.586-4.979c-0.158-0.111-0.351-0.174-0.523-0.264c-2.952-1.525-3.041-1.68-1.558-4.605
			c1.057-2.086,2.216-4.121,3.397-6.141c0.856-1.465,1.558-1.568,2.953-0.609c4.094,2.813,10.344,0.348,11.753-4.454
			c0.62-2.11,0.256-3.953-0.542-5.803c-0.352-0.817-0.245-1.339,0.48-1.694c1.18-0.578,2.36-1.19,3.606-1.583
			c2.093-0.655,4.225-1.202,6.364-1.688c1.092-0.248,1.764,0.193,2.089,1.439c0.748,2.865,2.698,4.772,5.522,5.52
			c3.014,0.798,5.708-0.009,7.859-2.346c0.329-0.358,0.612-0.763,0.896-1.162c1.346-1.903,1.409-2.05,3.516-1.076
			c2.515,1.164,4.925,2.565,7.328,3.952c0.981,0.566,1.076,1.478,0.62,2.556c-1.767,4.179-1.146,7.092,2.362,9.829
			c2.021,1.575,4.39,2.401,6.977,1.161c0.821-0.394,1.467-0.231,1.813,0.591c0.775,1.84,1.541,3.687,2.204,5.569
			c0.387,1.1,0.56,2.275,0.844,3.412c0.468,1.868,0.209,2.481-1.65,3.099c-2.014,0.669-3.435,1.902-4.469,3.753
			c-1.572,2.815-1.252,6.477,1.016,8.815c0.844,0.869,1.834,1.612,2.833,2.306c0.682,0.474,0.953,0.977,0.571,1.714
			c-1.502,2.89-2.988,5.786-4.556,8.64c-0.427,0.774-1.195,0.993-2.003,0.393c-2.519-1.865-5.227-1.878-7.862-0.479
			C68.553,232.115,66.932,234.409,66.816,237.692z M51.32,229.316c10.99,0.461,19.886-9.207,20.064-19.316
			c0.214-12.167-9.205-20.981-20.217-20.816c-11.802,0.177-19.926,8.729-20.058,20.23C30.983,220.312,40.102,229.775,51.32,229.316z
			"/>
		<path fill-rule="evenodd" clip-rule="evenodd" fill="#FF6B00" d="M123.176,215.251c0.526,1.58,0.891,2.832,1.359,4.043
			c0.677,1.743,0.644,1.963-1.056,2.605c-1.593,0.603-3.212,1.132-4.826,1.674c-1.088,0.365-1.498-0.271-1.757-1.19
			c-0.521-1.862-1.381-3.493-2.851-4.849c-3.393-3.134-8.749-2.71-11.507,1.011c-0.262,0.354-0.513,0.715-0.762,1.078
			c-0.673,0.984-1.391,1.07-2.297,0.241c-1.332-1.218-2.737-2.354-4.088-3.554c-0.859-0.764-0.824-1.471,0.006-2.354
			c0.948-1.014,1.779-2.166,2.513-3.35c2.852-4.605-2.481-11.262-7.073-10.927c-1.261,0.092-1.936-0.408-1.724-1.674
			c0.339-2.013,0.745-4.02,1.22-6.004c0.229-0.95,0.989-0.899,1.779-0.642c5.139,1.674,9.526-0.701,10.86-5.843
			c0.515-1.98-0.075-3.774-0.87-5.528c-0.654-1.442-0.525-1.828,1.007-2.359c1.52-0.526,3.038-1.053,4.573-1.532
			c1.595-0.498,1.896-0.306,2.223,1.271c0.954,4.611,4.92,7.36,9.549,6.559c2.117-0.366,3.807-1.507,5.006-3.28
			c1.229-1.816,1.521-1.932,3.152-0.602c1.21,0.988,2.33,2.086,3.521,3.098c1.03,0.875,0.998,1.65-0.014,2.533
			c-2.025,1.767-2.974,3.95-2.953,6.719c0.023,3.313,3.115,6.781,6.434,7.394c0.623,0.115,1.358-0.023,1.868,0.263
			c0.532,0.299,1.253,1.015,1.201,1.471c-0.218,1.933-0.589,3.866-1.105,5.742c-0.377,1.369-1.524,1.101-2.557,0.768
			c-3.351-1.082-6.801-0.128-8.802,2.749C124.271,212.128,123.813,213.809,123.176,215.251z M112.725,207.062
			c4.143,0.19,7.805-3.871,7.93-7.548c0.145-4.244-3.775-8.149-8.002-8.104c-3.785,0.042-7.801,3.924-7.683,7.963
			C105.086,203.347,108.745,207.062,112.725,207.062z"/>
		<path fill-rule="evenodd" clip-rule="evenodd" fill="#FF6B00" d="M39.964,149.621c0.878-0.37,1.773-0.708,2.631-1.119
			c1.46-0.698,1.909-0.56,2.633,0.874c0.265,0.521,0.606,1.005,0.861,1.531c0.91,1.89,0.656,2.581-1.226,3.442
			c-2.223,1.017-3.646,3.356-3.43,5.769c0.167,1.867,1.125,3.286,2.674,4.325c1.766,1.184,1.857,1.675,0.646,3.404
			c-0.141,0.199-0.296,0.392-0.46,0.572c-0.612,0.675-1.134,1.691-1.883,1.904c-0.577,0.164-1.452-0.666-2.177-1.083
			c-4.005-2.302-8.563,0.175-8.85,4.813c-0.115,1.861-0.74,2.4-2.619,2.182c-0.774-0.091-1.537-0.277-2.302-0.436
			c-1.042-0.215-1.575-0.858-1.288-1.903c0.78-2.835-1.353-5.885-4.329-6.918c-1.443-0.5-2.76-0.174-4.062,0.578
			c-1.684,0.976-1.973,0.857-3.026-0.801c-0.539-0.849-1.208-1.641-1.582-2.557c-0.163-0.399,0.098-1.273,0.455-1.525
			c0.778-0.553,1.871-0.686,2.608-1.274c3.268-2.61,3.488-7.07-0.236-9.645c-1.853-1.279-1.884-1.262-0.68-3.161
			c0.442-0.699,0.931-1.368,1.4-2.049c0.73-1.06,1.493-1.015,2.435-0.198c1.903,1.65,4.063,2.15,6.353,0.895
			c2.033-1.115,3.353-2.803,3.444-5.239c0.069-1.851,0.205-1.993,2.042-1.968c0.438,0.007,0.881,0.018,1.315,0.075
			c2.651,0.362,2.71,0.438,2.563,3.065C33.689,146.514,36.47,149.4,39.964,149.621z M29.375,151.965
			c-3.039-0.004-5.646,2.54-5.68,5.54c-0.035,3.084,2.697,5.774,5.832,5.743c2.822-0.027,5.5-2.741,5.551-5.595
			C35.118,155.371,32.841,151.728,29.375,151.965z"/>
		<path fill-rule="evenodd" clip-rule="evenodd" d="M90.954,158.168C77.406,158.392,66.5,147.4,66.533,133.865
			c0.033-14.035,10.893-24.652,24.749-24.561c13.032,0.086,24.832,10.526,24.14,26.136
			C114.912,146.921,104.642,158.616,90.954,158.168z M91.097,125.125c-4.886-0.027-8.719,3.793-8.736,8.707
			c-0.018,4.803,3.768,8.567,8.662,8.64c4.991,0.071,8.777-4.117,8.76-8.8C99.765,129.359,96.3,125.172,91.097,125.125z"/>
		<path fill-rule="evenodd" clip-rule="evenodd" fill="#FF6B00" d="M58.531,209.187c0.347,4.221-3.75,7.694-7.364,7.69
			c-4.437-0.002-7.742-3.309-7.78-7.786c-0.035-4.161,3.413-7.609,7.7-7.54C55.077,201.616,58.931,205.298,58.531,209.187z"/>
	</g>
</g>
</svg>
