<?xml version="1.0" encoding="utf-8"?>
<!-- Generator: Adobe Illustrator 16.0.0, SVG Export Plug-In . SVG Version: 6.00 Build 0)  -->
<!DOCTYPE svg PUBLIC "-//W3C//DTD SVG 1.1//EN" "http://www.w3.org/Graphics/SVG/1.1/DTD/svg11.dtd">
<svg version="1.1" id="Layer_1" xmlns="http://www.w3.org/2000/svg" xmlns:xlink="http://www.w3.org/1999/xlink" x="0px" y="0px"
	 width="261.17px" height="247px" viewBox="0 0 261.17 247" enable-background="new 0 0 261.17 247" xml:space="preserve">
<path fill-rule="evenodd" clip-rule="evenodd" fill="#FFFFFF" d="M9.965,170.872c0.449-0.968,35.543-39.32,36.271-40.089
	c9.955-10.467,19.892-20.952,29.823-31.442c3.828-4.043,7.312-4.531,11.848-1.173c10.111,7.481,20.137,15.08,30.146,22.694
	c2.977,2.265,2.984,4.695-0.074,7.347c-6.114,5.304-12.351,10.469-18.546,15.681c-5.358,4.508-5.555,8.14-0.715,13.205
	c4.137,4.335,8.256,8.684,12.131,13.867c-22.35,0-51.244,15.802-67.048,0C34.82,161.98,4.61,182.389,9.965,170.872z"/>
<path fill-rule="evenodd" clip-rule="evenodd" fill="#FFFFFF" d="M105.865,108.096c0.732-1.041,1.318-1.937,1.97-2.784
	c7.802-10.147,15.614-20.287,23.426-30.428c5.563-7.226,11.726-7.797,17.728-0.813c8.692,10.115,77.947,96.186,77.798,96.587
	c-7.994,1.633-42.701-1.166-54.206-3.622c-10.274-2.194-21.189,3.871-31.696,3.773c-1.441-0.014-3.046-0.44-4.289-1.163
	c-10.397-6.044-20.737-12.188-31.075-18.334c-3.313-1.97-3.464-3.381-0.526-5.989c5.401-4.794,10.869-9.513,16.331-14.239
	c5.939-5.142,5.887-7.649-0.372-12.179C116.004,115.325,111.023,111.79,105.865,108.096z"/>
<path fill-rule="evenodd" clip-rule="evenodd" fill="#FFFFFF" d="M235.176,168.582c5.426,0.216,14.667-0.604,16.801-1.04
	c0.119-0.318-54.744-68.501-61.63-76.515c-4.341-5.051-13.488-4.315-17.583,0.068C189.022,111.007,221.019,150.748,235.176,168.582z
	"/>
</svg>
