<?xml version="1.0" encoding="utf-8"?>
<!-- Generator: Adobe Illustrator 16.0.0, SVG Export Plug-In . SVG Version: 6.00 Build 0)  -->
<!DOCTYPE svg PUBLIC "-//W3C//DTD SVG 1.1//EN" "https://www.w3.org/Graphics/SVG/1.1/DTD/svg11.dtd">
<svg version="1.1" id="Layer_1" xmlns="https://www.w3.org/2000/svg" xmlns:xlink="https://www.w3.org/1999/xlink" x="0px" y="0px"
	 width="261.17px" height="247px" viewBox="0 0 261.17 247" enable-background="new 0 0 261.17 247" xml:space="preserve">
<g>
	<polygon fill="#FF6B00" points="165.226,73.101 141.011,181.101 112.61,181.101 86.394,73.101 65.813,73.101 96.884,201.101
		157.022,201.101 185.723,73.101 	"/>
</g>
<path fill-rule="evenodd" clip-rule="evenodd" d="M119.508,79.022c3.863-3.97,8.048-8.271,12.153-12.491
	c4.096,4.247,8.263,8.566,12.276,12.728c-3.851,3.807-8.121,8.026-12.073,11.931C127.86,87.247,123.524,82.978,119.508,79.022z"/>
<path fill-rule="evenodd" clip-rule="evenodd" d="M131.622,54.787c-3.818,3.755-8.021,7.89-11.928,11.733
	c-4.058-3.996-8.313-8.188-12.24-12.058c3.881-3.846,8.114-8.042,12.275-12.168C123.251,45.995,127.39,50.34,131.622,54.787z"/>
<path fill-rule="evenodd" clip-rule="evenodd" d="M117.282,118.959c0-6.05,0-11.688,0-17.547c5.904,0,11.624,0,17.547,0
	c0,5.88,0,11.611,0,17.547C128.972,118.959,123.25,118.959,117.282,118.959z"/>
</svg>
