<?xml version="1.0" encoding="utf-8"?>
<!-- Generator: Adobe Illustrator 16.0.0, SVG Export Plug-In . SVG Version: 6.00 Build 0)  -->
<!DOCTYPE svg PUBLIC "-//W3C//DTD SVG 1.1//EN" "https://www.w3.org/Graphics/SVG/1.1/DTD/svg11.dtd">
<svg version="1.1" id="Layer_1" xmlns="https://www.w3.org/2000/svg" xmlns:xlink="https://www.w3.org/1999/xlink" x="0px" y="0px"
	 width="261.17px" height="247px" viewBox="0 0 261.17 247" enable-background="new 0 0 261.17 247" xml:space="preserve">
<g>
	<path fill-rule="evenodd" clip-rule="evenodd" fill="#FF6B00" d="M119.732,207.04c-17.381-0.864-33.615-9.052-43.547-27.521
		c-6.625-12.319-6.449-25.243-2.045-38.271c3.678-10.878,9.438-20.685,15.857-30.101c7.324-10.739,14.896-21.308,22.306-31.99
		c2.15-3.1,4.093-6.344,6.169-9.497c2.154-3.27,6.473-3.344,8.669-0.157c8.936,12.968,17.894,25.919,26.78,38.92
		c6.307,9.227,12.205,18.692,16.324,29.15c2.488,6.315,4.311,12.819,4.367,19.629c0.156,18.777-8.433,32.711-24.205,42.391
		C142.191,204.638,132.609,207.048,119.732,207.04z M81.191,158.63c0.273,2.242,0.43,4.506,0.854,6.721
		c0.426,2.212,2.422,3.753,4.608,3.869c3.448,0.182,6.031-2.474,5.484-5.981c-0.893-5.729,0.153-11.157,2.069-16.497
		c2.287-6.371,5.352-12.388,9.082-18.001c5.998-9.02,12.268-17.86,18.42-26.779c1.873-2.717,1.48-5.844-0.947-7.603
		c-2.529-1.833-5.625-1.205-7.598,1.561c-3.193,4.478-6.39,8.953-9.558,13.448c-6.62,9.396-12.969,18.956-17.527,29.57
		C83.383,145.218,81.436,151.691,81.191,158.63z"/>
</g>
<path fill-rule="evenodd" clip-rule="evenodd" d="M202.981,120.29c-4.12-10.458-10.019-19.925-16.325-29.151
	c-8.887-13-17.846-25.952-26.781-38.919c-2.195-3.188-6.515-3.114-8.668,0.156c-2.076,3.153-4.019,6.397-6.17,9.497
	c-0.219,0.315-0.438,0.63-0.657,0.945c8.198,11.892,16.409,23.775,24.56,35.7c6.308,9.226,12.205,18.692,16.325,29.15
	c2.488,6.314,4.31,12.818,4.366,19.629c0.15,17.961-7.707,31.488-22.193,41.1c5.913-1.203,11.03-3.219,15.705-6.088
	c15.771-9.679,24.361-23.613,24.205-42.391C207.291,133.108,205.469,126.605,202.981,120.29z"/>
</svg>
