<?xml version="1.0" encoding="utf-8"?>
<!-- Generator: Adobe Illustrator 16.0.0, SVG Export Plug-In . SVG Version: 6.00 Build 0)  -->
<!DOCTYPE svg PUBLIC "-//W3C//DTD SVG 1.1//EN" "https://www.w3.org/Graphics/SVG/1.1/DTD/svg11.dtd">
<svg version="1.1" xmlns="https://www.w3.org/2000/svg" xmlns:xlink="https://www.w3.org/1999/xlink" x="0px" y="0px" width="50px"
	 height="50px" viewBox="0 0 50 50" enable-background="new 0 0 50 50" xml:space="preserve">
<g id="Layer_1">
	<path id="Globe_2_" fill="#FFFFFF" d="M24.5,3.375c-11.668,0-21.125,9.457-21.125,21.125c0,11.665,9.457,21.125,21.125,21.125
		c11.668,0,21.125-9.46,21.125-21.125C45.625,12.832,36.168,3.375,24.5,3.375z M43.935,24.5c0,2.688-0.549,5.252-1.541,7.582
		c-2.148,2.334-5.24,4.225-8.929,5.406c1.335-2.732,2.25-5.901,2.639-9.323c3.173-1.323,5.802-3.193,7.744-5.393
		C43.898,23.341,43.935,23.917,43.935,24.5z M26.012,43.859c-0.501,0.038-1.002,0.075-1.512,0.075s-1.01-0.037-1.512-0.075
		c-1.452-0.941-2.776-2.229-3.935-3.784c1.75,0.302,3.566,0.479,5.446,0.479s3.697-0.178,5.446-0.479
		C28.788,41.63,27.464,42.918,26.012,43.859z M24.5,38.865c-2.363,0-4.628-0.277-6.75-0.766c-1.507-2.625-2.588-5.788-3.083-9.269
		c2.98,1.005,6.306,1.584,9.833,1.584c3.527,0,6.853-0.579,9.833-1.584c-0.495,3.48-1.576,6.644-3.083,9.269
		C29.128,38.588,26.863,38.865,24.5,38.865z M6.606,32.082c-0.992-2.33-1.542-4.894-1.542-7.582c0-0.583,0.036-1.159,0.087-1.728
		c1.943,2.2,4.572,4.07,7.744,5.393c0.39,3.422,1.304,6.591,2.639,9.323C11.847,36.307,8.755,34.416,6.606,32.082z M12.733,26.282
		c-3.108-1.422-5.63-3.393-7.269-5.705c0.606-2.948,1.898-5.643,3.677-7.942c1.497,0.965,3.136,1.824,4.961,2.484
		c-0.913,2.863-1.433,6.034-1.433,9.381C12.67,25.103,12.701,25.693,12.733,26.282z M23.005,5.141
		c0.495-0.038,0.99-0.076,1.495-0.076s1,0.038,1.495,0.076c2.849,1.83,5.221,4.978,6.754,8.922
		c-2.535,0.734-5.324,1.142-8.249,1.142c-2.924,0-5.714-0.408-8.249-1.142C17.785,10.119,20.156,6.971,23.005,5.141z M24.5,16.895
		c3.121,0,6.093-0.444,8.802-1.241c0.85,2.695,1.338,5.686,1.338,8.846c0,0.847-0.043,1.679-0.108,2.499
		c-2.987,1.101-6.403,1.726-10.031,1.726c-3.627,0-7.044-0.625-10.031-1.726c-0.066-0.82-0.109-1.652-0.109-2.499
		c0-3.161,0.489-6.151,1.338-8.846C18.407,16.451,21.379,16.895,24.5,16.895z M34.897,15.119c1.825-0.66,3.464-1.519,4.961-2.484
		c1.779,2.299,3.071,4.994,3.677,7.942c-1.639,2.312-4.16,4.283-7.268,5.705c0.031-0.589,0.063-1.18,0.063-1.782
		C36.33,21.153,35.811,17.982,34.897,15.119z M38.774,11.356c-1.339,0.841-2.796,1.596-4.42,2.18
		c-1.217-3.147-2.949-5.823-5.023-7.839C33.015,6.645,36.271,8.64,38.774,11.356z M19.669,5.697
		c-2.075,2.017-3.808,4.692-5.024,7.839c-1.624-0.584-3.081-1.339-4.42-2.18C12.729,8.64,15.986,6.645,19.669,5.697z M9.115,36.33
		c2.182,1.402,4.748,2.514,7.579,3.239c0.881,1.42,1.89,2.669,2.99,3.737C15.423,42.214,11.728,39.718,9.115,36.33z M29.315,43.307
		c1.103-1.068,2.109-2.317,2.991-3.737c2.83-0.726,5.396-1.837,7.578-3.239C37.272,39.718,33.577,42.214,29.315,43.307z"/>
</g>
<g id="Layer_2">
</g>
</svg>
