<?xml version="1.0" encoding="utf-8"?>
<!-- Generator: Adobe Illustrator 16.0.0, SVG Export Plug-In . SVG Version: 6.00 Build 0)  -->
<!DOCTYPE svg PUBLIC "-//W3C//DTD SVG 1.1//EN" "http://www.w3.org/Graphics/SVG/1.1/DTD/svg11.dtd">
<svg version="1.1" id="Layer_1" xmlns="http://www.w3.org/2000/svg" xmlns:xlink="http://www.w3.org/1999/xlink" x="0px" y="0px"
	 width="261.17px" height="247px" viewBox="0 0 261.17 247" enable-background="new 0 0 261.17 247" xml:space="preserve">
<path fill="#FF6B00" d="M184.097,133.219l-133.443,0.003V145h41.801c31.031,0,62.063-0.105,93.095-0.092
	c6.489,0.003,12.114,4.807,12.806,11.047c0.775,6.979-3.281,12.951-9.865,14.539c-0.981,0.236-1.989,0.351-2.995,0.351
	c-5.446,0-10.353-3.439-12.209-8.558c-0.338-0.929-0.543-1.978-0.76-3.086c-0.111-0.568-0.225-1.104-0.358-1.687L171.812,156h-11.17
	l0.342,3.213c0.078,0.775,0.151,1.477,0.247,2.199c0.168,1.263,0.453,2.469,0.805,3.652c-4.168-7.881-12.39-12.967-22.028-12.992
	c-9.087-0.023-18.165-0.032-27.252-0.032c-7.072,0-38.046,0.015-38.046,0.015c-0.442,0-0.854,0.03-1.322,0.064l-1.257,0.04
	l-2.477,0.108v11.279l41.496-0.005c9.498,0,19.237,0.005,28.737,0.017c7.169,0.009,12.892,5.269,13.366,12.504
	c0.434,6.619-4.576,12.55-11.518,13.497c-0.529,0.072-1.024,0.117-1.558,0.117c-5.977,0-11.251-4.435-12.57-10.567
	c-0.12-0.558-0.188-1.115-0.271-1.739c-0.042-0.313-0.08-0.524-0.127-0.837L126.956,175h-11.624l0.362,2.145
	c0.099,0.633,0.181,1.098,0.26,1.691c0.176,1.31,0.342,2.535,0.652,3.791c2.691,10.883,12.494,18.479,23.837,18.479
	c1.73,0,3.474-0.185,5.18-0.544c12.631-2.661,21.139-15.232,18.963-28.021c-0.179-1.049-0.439-2.06-0.736-3.051
	c4.152,7.734,12.452,12.803,22.094,12.803c0.494,0,0.993-0.014,1.494-0.041c11.92-0.657,22.256-11.403,22.57-23.466
	c0.18-6.908-2.626-13.33-7.257-18.083C198.05,135.878,191.194,133.22,184.097,133.219z M189.704,125.583
	c12.098-2.069,20.639-12.629,20.307-25.13C209.7,88.741,200.538,78.68,188.7,77.071c-1.077-0.146-2.174-0.238-3.258-0.238
	c-9.159,0-17.458,5.211-21.63,13.144c1.204-3.89,1.436-8.08,0.628-12.282c-2.173-11.318-12.324-19.51-24.137-19.51
	c-1.689,0-3.392,0.221-5.057,0.562c-11.265,2.308-19.906,13.211-19.263,24.139l0.11,2.114h10.843l0.279-1.903
	c0.079-0.474,0.146-1.139,0.209-1.577c0.123-0.852,0.229-1.598,0.408-2.282c1.47-5.637,6.671-9.58,12.643-9.58
	c0.875,0,1.766,0.083,2.633,0.251c6.492,1.261,11.076,7.69,10.201,14.332c-0.901,6.836-6.236,11.431-13.315,11.436
	c-9.521,0.006-19.691,0.008-29.211,0.008l-41.131-0.003V107h65.78c0.562,0,1.124,0.089,1.688,0.095
	c0.578,0.006,1.158,0.116,1.737,0.116c1.6,0,3.491-0.046,5.391-0.353c6.674-1.078,12.441-4.661,16.238-10.089
	c0.601-0.859,1.136-1.755,1.616-2.67c-0.057,0.182-0.126,0.356-0.179,0.54c-0.412,1.448-0.627,2.872-0.835,4.298
	c-0.094,0.638-0.188,1.227-0.301,1.875L160.381,103h11.729l0.3-1.994c0.051-0.347,0.097-0.486,0.127-0.801
	c0.596-6.203,5.147-10.811,11.596-11.724c0.498-0.071,1.01-0.112,1.521-0.112c5.116,0,10.035,3.411,11.963,8.298
	c2.169,5.502,0.223,11.976-4.624,15.394c-2.322,1.637-5.03,2.399-8.534,2.399c-25.348-0.021-51.401-0.024-76.749-0.024
	l-57.055,0.001V126h132.359C185.267,126,187.474,125.964,189.704,125.583z"/>
</svg>
