<?xml version="1.0" encoding="UTF-8" standalone="no"?>
<!-- Created with Inkscape (https://www.inkscape.org/) -->

<svg
   xmlns:dc="https://purl.org/dc/elements/1.1/"
   xmlns:cc="https://creativecommons.org/ns#"
   xmlns:rdf="https://www.w3.org/1999/02/22-rdf-syntax-ns#"
   xmlns:svg="https://www.w3.org/2000/svg"
   xmlns="https://www.w3.org/2000/svg"
   xmlns:sodipodi="https://sodipodi.sourceforge.net/DTD/sodipodi-0.dtd"
   xmlns:inkscape="https://www.inkscape.org/namespaces/inkscape"
   version="1.1"
   id="svg2"
   width="290.66666"
   height="397.33334"
   viewBox="0 0 290.66666 397.33334"
   sodipodi:docname="homepage-bg-countries.svg"
   inkscape:version="0.92.1 r15371">
  <metadata
     id="metadata8">
    <rdf:RDF>
      <cc:Work
         rdf:about="">
        <dc:format>image/svg+xml</dc:format>
        <dc:type
           rdf:resource="https://purl.org/dc/dcmitype/StillImage" />
        <dc:title></dc:title>
      </cc:Work>
    </rdf:RDF>
  </metadata>
  <defs
     id="defs6" />
  <sodipodi:namedview
     pagecolor="#ffffff"
     bordercolor="#666666"
     borderopacity="1"
     objecttolerance="10"
     gridtolerance="10"
     guidetolerance="10"
     inkscape:pageopacity="0"
     inkscape:pageshadow="2"
     inkscape:window-width="1855"
     inkscape:window-height="1056"
     id="namedview4"
     showgrid="false"
     inkscape:zoom="1.6799718"
     inkscape:cx="157.45918"
     inkscape:cy="205.08544"
     inkscape:window-x="65"
     inkscape:window-y="24"
     inkscape:window-maximized="1"
     inkscape:current-layer="svg2" />
  <path
     style="fill:#ffffff;stroke-width:1.33333337"
     d="M 52.974311,386.53467 C 8.7563305,376.96057 5.5987405,376.08544 3.0948205,372.71049 l -2.67315,-3.60304 15.5294705,-101.06363 c 13.97986,-90.9789 15.81198,-101.29646 18.36054,-103.39696 1.55709,-1.28333 4.4146,-2.34102 6.35003,-2.35044 3.73199,-0.0181 64.112719,17.0812 65.908449,18.66475 0.82862,0.73071 8.91881,20.96057 8.939,22.35236 0.0258,1.78092 -12.91447,-1.04627 -36.114999,-7.89037 -15.33245,-4.52306 -28.13078,-7.97012 -28.44073,-7.66018 -0.90193,0.90194 -26.57835,169.18941 -25.91522,169.85255 0.33002,0.33002 17.78428,4.27238 38.78726,8.7608 l 38.187239,8.16079 46.418,-18.77845 c 25.5299,-10.32816 47.70448,-18.77847 49.27686,-18.77847 1.57237,0 6.97206,1.27444 11.9993,2.83209 19.16419,5.93786 55.70335,15.71612 56.34181,15.07767 0.7368,-0.7368 -22.4195,-145.82992 -23.59096,-147.81656 -0.4022,-0.68207 -2.85858,-3.08207 -5.45865,-5.33334 -2.60005,-2.25125 -6.51023,-5.66036 -8.68927,-7.57577 l -3.96188,-3.48257 3.2497,-10.8441 c 1.78734,-5.96425 3.67213,-10.84709 4.18842,-10.85076 0.51631,-0.004 7.5465,5.70564 15.62264,12.68735 11.77394,10.17837 14.94484,13.67947 16.00055,17.66667 0.72415,2.73496 7.41401,42.77064 14.86636,88.96818 14.81229,91.82222 14.54436,87.96491 6.42655,92.52133 -3.15871,1.77293 -6.535,1.05097 -45.31042,-9.6889 l -41.89738,-11.60457 -41.32351,16.86272 c -51.3041,20.93548 -50.10028,20.47472 -53.3235,20.40984 -1.46667,-0.0296 -23.909529,-4.6532 -49.873019,-10.27481 z M 157.3213,252.05942 c -23.61097,-49.6897 -39.66453,-95.70224 -46.45573,-133.15087 -3.41015,-18.80451 -4.08301,-46.865682 -1.48074,-61.752922 3.3714,-19.28728 8.86534,-31.09672 19.36729,-41.6307 12.00953,-12.0461696 19.66986,-15.01314956 38.76187,-15.01314956 17.94379,0 26.06004,2.91197996 37.41364,13.42340956 15.49595,14.34652 21.92632,34.5149 21.80137,68.378341 -0.13472,36.511211 -9.38035,74.886771 -30.8335,127.979671 -9.00575,22.28769 -27.03671,60.02033 -28.68137,60.02033 -0.67048,0 -5.12227,-8.21435 -9.89283,-18.25411 z M 179.57747,94.947367 c 5.30223,-2.741888 11.71607,-9.925809 13.3899,-14.997575 2.48998,-7.544704 0.9758,-19.281164 -3.19264,-24.746274 -6.68954,-8.77043 -11.04442,-10.88999 -22.37474,-10.88999 -8.87409,0 -10.76588,0.45175 -15.43144,3.68499 -11.54546,8.00102 -15.20373,23.43707 -8.42048,35.530232 3.7502,6.685838 7.80776,10.076098 15.37635,12.847566 5.81045,2.127671 15.00557,1.491476 20.65305,-1.428949 z"
     id="path4487"
     inkscape:connector-curvature="0"
     inkscape:export-filename="/home/ghitabizau/Desktop/homepage-bg-countries.png"
     inkscape:export-xdpi="200.06671"
     inkscape:export-ydpi="200.06671" />
</svg>
