<?xml version="1.0" encoding="utf-8"?>
<!-- Generator: Adobe Illustrator 16.0.0, SVG Export Plug-In . SVG Version: 6.00 Build 0)  -->
<!DOCTYPE svg PUBLIC "-//W3C//DTD SVG 1.1//EN" "http://www.w3.org/Graphics/SVG/1.1/DTD/svg11.dtd">
<svg version="1.1" id="Layer_1" xmlns="http://www.w3.org/2000/svg" xmlns:xlink="http://www.w3.org/1999/xlink" x="0px" y="0px"
	 width="50px" height="50px" viewBox="0 0 50 50" enable-background="new 0 0 50 50" xml:space="preserve">
<path id="Crosshair__x28_alt_x29__2_" fill="#FF6B00" d="M29,25h-4v4h-1v-4h-4v-1h4v-4h1v4h4V25z M25,14h-1V2h1V14z M25,35h-1v12h1
	V35z M14,24v1H2v-1H14z M35,24v1h12v-1H35z M9.212,22C10.354,15,15,10.354,22,9.212V7.364C14,8.539,8.539,14,7.364,22H9.212z
	 M27,9.212C34,10.354,38.646,15,39.788,22h1.849C40.461,14,35,8.539,27,7.364V9.212z M39.788,27C38.646,34,34,38.646,27,39.788
	v1.849C35,40.461,40.461,35,41.637,27H39.788z M22,39.788C15,38.646,10.354,34,9.212,27H7.364C8.539,35,14,40.461,22,41.637V39.788z
	"/>
</svg>
