<?xml version="1.0" encoding="UTF-8" standalone="no"?>
<!-- Generator: Adobe Illustrator 16.0.0, SVG Export Plug-In . SVG Version: 6.00 Build 0)  -->

<svg
   xmlns:dc="https://purl.org/dc/elements/1.1/"
   xmlns:cc="https://creativecommons.org/ns#"
   xmlns:rdf="https://www.w3.org/1999/02/22-rdf-syntax-ns#"
   xmlns:svg="https://www.w3.org/2000/svg"
   xmlns="https://www.w3.org/2000/svg"
   xmlns:sodipodi="https://sodipodi.sourceforge.net/DTD/sodipodi-0.dtd"
   xmlns:inkscape="https://www.inkscape.org/namespaces/inkscape"
   version="1.1"
   id="Layer_1"
   x="0px"
   y="0px"
   width="50px"
   height="50px"
   viewBox="0 0 50 50"
   enable-background="new 0 0 50 50"
   xml:space="preserve"
   sodipodi:docname="homepage_objectives_specific.svg"
   inkscape:version="0.92.1 r15371"><metadata
     id="metadata8"><rdf:RDF><cc:Work
         rdf:about=""><dc:format>image/svg+xml</dc:format><dc:type
           rdf:resource="https://purl.org/dc/dcmitype/StillImage" /></cc:Work></rdf:RDF></metadata><defs
     id="defs6" /><sodipodi:namedview
     pagecolor="#ffffff"
     bordercolor="#666666"
     borderopacity="1"
     objecttolerance="10"
     gridtolerance="10"
     guidetolerance="10"
     inkscape:pageopacity="0"
     inkscape:pageshadow="2"
     inkscape:window-width="1855"
     inkscape:window-height="1056"
     id="namedview4"
     showgrid="false"
     inkscape:zoom="4.72"
     inkscape:cx="25"
     inkscape:cy="25"
     inkscape:window-x="65"
     inkscape:window-y="24"
     inkscape:window-maximized="1"
     inkscape:current-layer="Layer_1" /><path
     id="Crosshair__x28_alt_x29__2_"
     fill="#FF6B00"
     d="M29,25h-4v4h-1v-4h-4v-1h4v-4h1v4h4V25z M25,14h-1V2h1V14z M25,35h-1v12h1  V35z M14,24v1H2v-1H14z M35,24v1h12v-1H35z M9.212,22C10.354,15,15,10.354,22,9.212V7.364C14,8.539,8.539,14,7.364,22H9.212z   M27,9.212C34,10.354,38.646,15,39.788,22h1.849C40.461,14,35,8.539,27,7.364V9.212z M39.788,27C38.646,34,34,38.646,27,39.788  v1.849C35,40.461,40.461,35,41.637,27H39.788z M22,39.788C15,38.646,10.354,34,9.212,27H7.364C8.539,35,14,40.461,22,41.637V39.788z  "
     style="fill:#1f87e8;fill-opacity:1" /></svg>
