<?xml version="1.0" encoding="utf-8"?>
<!-- Generator: Adobe Illustrator 16.0.0, SVG Export Plug-In . SVG Version: 6.00 Build 0)  -->
<!DOCTYPE svg PUBLIC "-//W3C//DTD SVG 1.1//EN" "http://www.w3.org/Graphics/SVG/1.1/DTD/svg11.dtd">
<svg version="1.1" id="Layer_1" xmlns="http://www.w3.org/2000/svg" xmlns:xlink="http://www.w3.org/1999/xlink" x="0px" y="0px"
	 width="339.286px" height="265.476px" viewBox="0 0 339.286 265.476" enable-background="new 0 0 339.286 265.476"
	 xml:space="preserve">
<g>
	<path fill-rule="evenodd" clip-rule="evenodd" fill="#079247" d="M12.19,70.762c0-2,0-4,0-6c2.811-5.788,7.674-8.052,13.849-9.031
		c12.651-2.005,25.195-4.684,37.836-6.766c3.313-0.546,4.374-1.933,4.686-5.06c0.527-5.293,1.376-10.564,2.315-15.804
		c1.379-7.684,6.198-11.172,13.904-10.065c21.417,3.076,42.814,6.295,64.237,9.326c6.731,0.952,13.783,3.038,20.243,1.954
		c34.623-5.813,69.114-12.426,103.634-18.855c7.747-1.443,13.073,1.719,14.665,9.446c1.643,7.985,3.23,15.993,4.432,24.052
		c0.496,3.332,1.967,4.422,5.073,4.783c6.776,0.787,13.487,2.269,20.276,2.766c7.186,0.525,12.373,3.248,14.85,10.254
		c0,0.667,0,1.333,0,2c-0.404,1.6-0.953,3.178-1.191,4.802c-3.615,24.706-7.201,49.417-10.77,74.129
		c-2.346,16.24-6.291,32.438-0.998,48.861c0.861,2.672,1.217,5.526,1.622,8.323c0.657,4.544-0.729,9.345-4.8,10.577
		c-6.588,1.996-6.713,6.628-7.26,11.72c-0.443,4.135-1.084,8.253-1.775,12.354c-1.156,6.863-6.451,10.82-13.227,9.845
		c-23.722-3.417-47.428-6.954-71.161-10.286c-6.216-0.873-12.757-2.557-18.735-1.51c-47.537,8.318-94.975,17.205-142.441,25.922
		c-9.478,1.74-14.297-1.464-16.02-10.813c-9.132-49.591-18.203-99.194-27.387-148.776C16.304,89.489,14.153,80.143,12.19,70.762z
		 M308.128,72.479C235.614,62.04,163.649,51.681,91.199,41.251c-7.198,49.789-14.308,98.977-21.484,148.616
		c72.622,10.451,144.573,20.806,216.933,31.219C293.829,171.399,300.921,122.333,308.128,72.479z M64.585,71.121
		c-9.971,1.864-19.007,3.552-28.28,5.285c5.056,27.333,9.979,53.953,14.901,80.572c0.33-0.031,0.66-0.062,0.99-0.092
		C56.28,128.614,60.364,100.342,64.585,71.121z M135.386,222.563c-0.033-0.342-0.066-0.684-0.1-1.026
		c-24.56-3.527-49.12-7.056-74.178-10.653c1.611,8.571,3.066,16.318,4.594,24.451C89.354,231,112.369,226.781,135.386,222.563z
		 M267.727,33.814c-9.907,1.835-19.356,3.586-28.806,5.336c0.026,0.384,0.052,0.767,0.077,1.151
		c10.024,1.423,20.048,2.847,30.712,4.36C268.964,40.58,268.377,37.374,267.727,33.814z"/>
	<path fill-rule="evenodd" clip-rule="evenodd" fill="#079247" d="M215.563,104.242c8.544,16.77,16.765,32.908,24.857,48.792
		c6.731-6.312,13.362-12.53,20.597-19.313c4.395,23.69,8.726,47.043,13.21,71.224c-62.8-9.035-124.94-17.975-187.565-26.984
		c6.344-15.326,17.614-22.936,32.869-25.199c14.848-2.203,29.213,0.41,43.242,5.064c3.609,1.197,5.57,0.494,7.984-2.324
		c13.536-15.812,27.3-31.428,40.994-47.104C212.825,107.165,213.958,105.986,215.563,104.242z"/>
	<path fill-rule="evenodd" clip-rule="evenodd" fill="#079247" d="M140.188,76.404c11.827,0.236,21.233,9.977,20.876,21.618
		c-0.354,11.48-10.068,20.792-21.48,20.586c-11.773-0.212-21.158-9.984-20.827-21.688C119.083,85.32,128.639,76.173,140.188,76.404z
		"/>
</g>
</svg>
