<?xml version="1.0" encoding="utf-8"?>
<!-- Generator: Adobe Illustrator 16.0.0, SVG Export Plug-In . SVG Version: 6.00 Build 0)  -->
<!DOCTYPE svg PUBLIC "-//W3C//DTD SVG 1.1//EN" "http://www.w3.org/Graphics/SVG/1.1/DTD/svg11.dtd">
<svg version="1.1" id="Layer_1" xmlns="http://www.w3.org/2000/svg" xmlns:xlink="http://www.w3.org/1999/xlink" x="0px" y="0px"
	 width="339.286px" height="265.476px" viewBox="0 0 339.286 265.476" enable-background="new 0 0 339.286 265.476"
	 xml:space="preserve">
<g>
	<path fill-rule="evenodd" clip-rule="evenodd" fill="#079247" d="M69.294,52.895c1.41,0,2.462,0,3.514,0
		c9.932,0,19.865,0.067,29.794-0.073c1.517-0.021,3.312-0.644,4.486-1.595c15.738-12.749,31.404-25.586,47.053-38.443
		c7.375-6.059,14.811-6.193,22.194-0.276c16.11,12.913,32.199,25.854,48.381,38.678c1.25,0.992,3.148,1.609,4.758,1.634
		c9.534,0.15,19.075,0.074,28.614,0.075c1.064,0,2.131,0,3.479,0c0.063,1.318,0.156,2.36,0.158,3.401
		c0.013,6.981-0.09,13.965,0.091,20.942c0.035,1.347,0.82,3.04,1.828,3.937c5.945,5.296,12.079,10.38,18.106,15.584
		c5.448,4.705,8.204,10.703,8.207,17.901c0.016,40.809,0.021,81.618-0.003,122.427c-0.004,8.893-5.674,14.627-14.571,14.63
		c-72.571,0.028-145.144,0.029-217.714-0.002c-8.883-0.004-14.508-5.755-14.513-14.682c-0.021-40.711-0.007-81.421-0.011-122.132
		c0-7.31,2.693-13.397,8.227-18.19c5.351-4.634,10.789-9.171,16.034-13.921c0.998-0.904,1.775-2.59,1.806-3.936
		c0.172-7.469,0.082-14.945,0.082-22.418C69.294,55.386,69.294,54.336,69.294,52.895z M266.227,237.871
		c0.186-0.248,0.371-0.496,0.557-0.743c-0.422-0.223-0.89-0.386-1.259-0.674c-32.797-25.72-65.599-51.436-98.347-77.219
		c-1.615-1.271-2.5-0.72-3.752,0.297c-31.454,25.517-62.924,51.013-94.413,76.487c-0.563,0.454-1.385,0.586-2.086,0.87
		c0.294,0.327,0.587,0.654,0.88,0.981C133.947,237.871,200.087,237.871,266.227,237.871z M150.455,113.403
		c0,13.06,0,25.763,0,39.024c5.256-4.259,10.029-8.127,14.798-11.99c1.054,0.802,1.917,1.311,2.595,2
		c2.44,2.483,5.325,3.17,8.784,3.073c7.957-0.223,15.924-0.076,23.888-0.063c1.026,0.002,2.053,0.108,3.033,0.164
		c0,2.402,0,4.423,0,6.852c-7.451,0-14.722,0-22.884,0c6.303,4.944,11.841,9.287,17.39,13.641c0.692-0.489,1.186-0.807,1.645-1.166
		c15.466-12.135,30.911-24.296,46.42-36.375c1.509-1.175,1.958-2.42,1.953-4.241c-0.055-18.187-0.03-36.375-0.04-54.562
		c-0.001-0.947-0.097-1.894-0.149-2.857c-55.058,0-109.843,0-164.553,0c-0.145,0.414-0.264,0.596-0.264,0.778
		c-0.028,18.776-0.05,37.552-0.052,56.328c0,0.567,0.01,1.37,0.356,1.666c2.684,2.3,5.451,4.502,8.848,7.269
		c0-7.183,0-13.329,0-19.541C111.637,113.403,130.764,113.403,150.455,113.403z M276.098,122.43
		c-22.492,17.643-44.545,34.94-66.865,52.448c22.386,17.556,44.438,34.852,66.865,52.442
		C276.098,192.138,276.098,157.614,276.098,122.43z M57.004,122.376c0,35.493,0,70.273,0,105.769
		c22.131-17.894,43.817-35.43,65.789-53.196C100.776,157.355,79.121,140.051,57.004,122.376z M142.938,121.141
		c-0.565-0.319-0.647-0.407-0.73-0.407c-13.648-0.052-27.295-0.083-40.942-0.163c-1.701-0.01-1.878,0.927-1.869,2.258
		c0.031,4.223,0.127,8.451-0.037,12.668c-0.088,2.277,0.614,3.78,2.443,5.209c8.436,6.588,16.757,13.321,25.108,20.018
		c6.72,5.388,6.713,5.397,13.517-0.116c0.229-0.186,0.554-0.324,0.671-0.564c0.641-1.307,1.733-2.63,1.758-3.964
		c0.161-8.444,0.082-16.892,0.082-25.339C142.938,127.515,142.938,124.289,142.938,121.141z M203.662,52.739
		c0.067-0.203,0.136-0.405,0.204-0.607c-12.257-9.817-24.521-19.625-36.762-29.462c-1.503-1.208-2.633-0.642-3.898,0.398
		c-11.464,9.421-22.954,18.81-34.425,28.224c-0.388,0.318-0.643,0.797-1.153,1.447C153.233,52.739,178.446,52.739,203.662,52.739z
		 M261.912,116.113c3.944-3.099,7.445-5.848,11.157-8.763c-3.798-3.238-7.266-6.196-11.157-9.512
		C261.912,104.114,261.912,109.746,261.912,116.113z M60.048,107.307c3.04,2.414,5.813,4.616,8.993,7.141c0-5.194,0-9.746,0-14.868
		C65.839,102.331,63.066,104.714,60.048,107.307z"/>
	<path fill-rule="evenodd" clip-rule="evenodd" fill="#079247" d="M234.629,84.696c0,4.52,0,8.8,0,13.288
		c-47.169,0-94.181,0-141.437,0c0-4.379,0-8.731,0-13.288C140.289,84.696,187.304,84.696,234.629,84.696z"/>
	<path fill-rule="evenodd" clip-rule="evenodd" fill="#079247" d="M160.963,113.441c24.493,0,48.741,0,73.192,0
		c0,3.506,0,6.888,0,10.505c-24.365,0-48.673,0-73.192,0C160.963,120.517,160.963,117.135,160.963,113.441z"/>
	<path fill-rule="evenodd" clip-rule="evenodd" fill="#079247" d="M222.124,130.963c0,2.165,0,4.267,0,6.479
		c-20.409,0-40.622,0-61.032,0c0-2.162,0-4.185,0-6.479C181.395,130.963,201.659,130.963,222.124,130.963z"/>
</g>
</svg>
